HIERARCHY
ROOT Hips
{
	OFFSET 0.000000 0.000000 0.000000
	CHANNELS 6 Xposition Yposition Zposition Zrotation Yrotation Xrotation 
	JOINT LeftUpLeg_virtual
	{
		OFFSET 0.000000 0.000000 0.000000
		CHANNELS 3 Zrotation Yrotation Xrotation
		JOINT LeftUpLeg
		{
			OFFSET 10.205400 -3.823500 0.155100
			CHANNELS 3 Zrotation Yrotation Xrotation
			JOINT LeftLeg
			{
				OFFSET 0.708757 -12.982077 0.567790
				CHANNELS 3 Zrotation Yrotation Xrotation
				JOINT LeftFoot
				{
					OFFSET -0.708756 -10.717838 -2.184338
					CHANNELS 3 Zrotation Yrotation Xrotation
					JOINT LeftToeBase
					{
						OFFSET 0.108149 -7.191104 7.560241
						CHANNELS 3 Zrotation Yrotation Xrotation
						End Site
						{
							OFFSET 0.000000 0.000000 0.000000
						}
					}
				}
			}
		}
	}
	JOINT RightUpLeg_virtual
	{
		OFFSET 0.000000 0.000000 0.000000
		CHANNELS 3 Zrotation Yrotation Xrotation
		JOINT RightUpLeg
		{
			OFFSET -10.205400 -3.823500 0.005500
			CHANNELS 3 Zrotation Yrotation Xrotation
			JOINT RightLeg
			{
				OFFSET -0.708756 -12.982134 0.610632
				CHANNELS 3 Zrotation Yrotation Xrotation
				JOINT RightFoot
				{
					OFFSET 0.708754 -10.717769 -1.945823
					CHANNELS 3 Zrotation Yrotation Xrotation
					JOINT RightToeBase
					{
						OFFSET -0.108140 -7.191069 7.372968
						CHANNELS 3 Zrotation Yrotation Xrotation
						End Site
						{
							OFFSET 0.000000 0.000000 0.000000
						}
					}
				}
			}
		}
	}
	JOINT Spine_virtual
	{
		OFFSET 0.000000 0.000000 0.000000
		CHANNELS 3 Zrotation Yrotation Xrotation
		JOINT Spine
		{
			OFFSET 0.000000 6.876099 0.125700
			CHANNELS 3 Zrotation Yrotation Xrotation
			JOINT Spine1
			{
				OFFSET 0.000000 8.022060 0.146608
				CHANNELS 3 Zrotation Yrotation Xrotation
				JOINT Spine2
				{
					OFFSET 0.000000 9.168068 0.167552
					CHANNELS 3 Zrotation Yrotation Xrotation
					JOINT Neck_virtual
					{
						OFFSET 0.000000 0.000000 0.000000
						CHANNELS 3 Zrotation Yrotation Xrotation
						JOINT Neck
						{
							OFFSET 0.000000 10.314075 0.188496
							CHANNELS 3 Zrotation Yrotation Xrotation
							JOINT Head
							{
								OFFSET 0.000000 7.643700 -2.377400
								CHANNELS 3 Zrotation Yrotation Xrotation
								End Site
								{
									OFFSET 0.000000 0.000000 0.000000
								}
							}
						}
					}
					JOINT LeftShoulder_virtual
					{
						OFFSET 0.000000 0.000000 0.000000
						CHANNELS 3 Zrotation Yrotation Xrotation
						JOINT LeftShoulder
						{
							OFFSET 4.392200 8.824978 0.174984
							CHANNELS 3 Zrotation Yrotation Xrotation
							JOINT LeftArm
							{
								OFFSET 8.771219 -2.981674 -0.026999
								CHANNELS 3 Zrotation Yrotation Xrotation
								JOINT LeftForeArm
								{
									OFFSET 8.512804 0.000000 -0.000000
									CHANNELS 3 Zrotation Yrotation Xrotation
									JOINT LeftHand
									{
										OFFSET 18.484802 0.000000 -0.000000
										CHANNELS 3 Zrotation Yrotation Xrotation
										End Site
										{
											OFFSET 0.000000 0.000000 0.000000
										}
									}
								}
							}
						}
					}
					JOINT RightShoulder_virtual
					{
						OFFSET 0.000000 0.000000 0.000000
						CHANNELS 3 Zrotation Yrotation Xrotation
						JOINT RightShoulder
						{
							OFFSET -4.392200 8.824993 0.141379
							CHANNELS 3 Zrotation Yrotation Xrotation
							JOINT RightArm
							{
								OFFSET -8.771282 -2.981682 -0.094208
								CHANNELS 3 Zrotation Yrotation Xrotation
								JOINT RightForeArm
								{
									OFFSET -8.494598 0.000000 0.000000
									CHANNELS 3 Zrotation Yrotation Xrotation
									JOINT RightHand
									{
										OFFSET -18.483803 0.000000 0.000001
										CHANNELS 3 Zrotation Yrotation Xrotation
										End Site
										{
											OFFSET 0.000000 0.000000 0.000000
										}
									}
								}
							}
						}
					}
				}
			}
		}
	}
}
MOTION
Frames: 10
Frame Time: 0.033333
-53.585407 36.327103 -31.835669 0.598732 -16.887031 0.287583 -2.613430 -5.533130 16.678229 -12.481425 -2.361323 -51.159012 13.957987 -0.945473 18.201817 -9.755096 -0.802938 13.937230 0.000000 0.000000 0.000000 3.870142 -5.848816 17.259297 -7.602820 2.722506 -9.299561 -1.020099 1.794095 26.832781 5.441708 1.061011 2.768577 0.000000 0.000000 0.000000 1.140067 -0.065498 1.549648 7.239321 8.116122 -17.328183 -2.071184 -5.187415 8.633989 0.097788 0.419206 0.000440 -1.932117 -3.760134 8.887810 -6.202093 -10.700242 22.168383 0.000000 0.000000 0.000000 0.650547 -3.396511 4.861698 -3.932925 0.349344 6.202368 -56.037857 20.038231 16.385286 -168.799765 -82.699213 -167.114826 0.000000 0.000000 0.000000 -5.092919 -1.423962 3.753429 25.749110 12.251954 10.032842 62.500117 -16.109942 -8.106899 -172.527846 65.555732 -165.616050 0.000000 0.000000 0.000000 
-54.307926 36.026749 -30.645344 0.746677 -16.598140 0.318127 -2.610616 -5.946368 17.143693 -13.517200 -2.232048 -53.120512 13.916295 -0.220002 13.040393 -10.229821 -1.454079 14.314661 0.000000 0.000000 0.000000 4.117243 -6.797935 18.097438 -7.909878 2.420593 -7.548326 -0.801602 1.615109 26.478815 5.232640 1.579301 1.612100 0.000000 0.000000 0.000000 1.208263 -0.255760 1.882091 7.043219 8.403004 -17.802318 -2.273291 -5.062469 8.461459 0.083777 0.460276 0.003151 -2.165795 -3.708769 8.710995 -6.596887 -10.066795 21.997186 0.000000 0.000000 0.000000 0.479787 -3.282307 4.717411 -4.229104 0.713267 6.188856 -56.196823 20.302804 16.091849 -169.499778 -82.772433 -166.308440 0.000000 0.000000 0.000000 -5.298010 -1.305889 3.573806 25.786220 12.263525 10.366531 62.403900 -16.036710 -7.516656 -172.541903 65.937676 -164.874975 0.000000 0.000000 0.000000 
-55.026157 35.723045 -29.284925 0.823954 -16.537433 0.363454 -2.534137 -6.433551 17.744179 -14.658194 -2.003637 -54.625623 14.083135 0.425526 10.197060 -10.569298 -2.116974 14.550697 0.000000 0.000000 0.000000 4.384450 -7.822214 18.888483 -8.581795 2.304802 -5.597289 -0.682497 1.476948 25.904123 5.116438 2.125853 0.905947 0.000000 0.000000 0.000000 1.364968 -0.552241 2.159441 6.684265 9.056374 -18.285673 -2.576476 -5.096623 8.312800 0.071975 0.221555 0.017202 -2.435943 -3.552236 8.542277 -7.077097 -9.845999 21.953823 0.000000 0.000000 0.000000 0.261303 -3.019265 4.529099 -4.488116 1.065124 6.340162 -56.167466 20.304554 15.771465 -170.854122 -82.784249 -164.916693 0.000000 0.000000 0.000000 -5.371981 -1.054753 3.487522 25.828092 12.499866 10.661128 62.079822 -15.871864 -6.922049 -172.570822 66.368682 -164.400167 0.000000 0.000000 0.000000 
-55.748665 35.438381 -27.740910 1.009479 -16.773258 0.397255 -2.547461 -6.694202 18.272102 -15.797457 -1.667894 -55.263552 14.524247 0.372109 9.374136 -10.818162 -2.591639 14.426058 0.000000 0.000000 0.000000 4.655685 -8.779383 19.504597 -9.611411 2.417981 -3.322577 -0.660134 1.222884 25.124048 5.147108 2.646821 0.935854 0.000000 0.000000 0.000000 1.355896 -1.028920 2.392797 6.251626 9.582504 -18.765499 -2.751858 -4.794750 8.157613 0.106852 0.402758 0.022050 -2.629933 -3.423156 8.400565 -7.432740 -9.264105 22.008152 0.000000 0.000000 0.000000 0.088615 -2.928911 4.380007 -4.715222 1.269900 6.181506 -56.183190 20.230571 15.597954 -172.061536 -82.830701 -163.611349 0.000000 0.000000 0.000000 -5.579615 -0.912140 3.308524 25.860973 12.568766 11.040559 61.723190 -15.522824 -6.634519 -172.234203 66.852471 -163.458612 0.000000 0.000000 0.000000 
-56.457840 35.197647 -26.004951 1.159709 -16.582513 0.365014 -2.673353 -7.156141 18.512184 -16.895818 -1.093538 -54.903577 14.576746 1.822063 8.563200 -9.905784 -2.543816 17.745629 0.000000 0.000000 0.000000 4.991030 -9.220708 19.628312 -10.978857 3.124938 -0.832555 -0.300378 1.122119 24.472875 6.238403 3.835038 3.551019 0.000000 0.000000 0.000000 1.374403 -1.163650 2.386615 5.727341 9.729852 -19.022439 -2.989551 -4.790091 8.078600 0.120583 0.241128 -0.000103 -2.791102 -3.240670 8.101773 -7.819734 -9.118004 22.058711 0.000000 0.000000 0.000000 -0.033814 -2.713578 4.198847 -4.968684 1.549423 6.154094 -56.234570 19.911839 15.249574 -173.059467 -82.781804 -162.775962 0.000000 0.000000 0.000000 -5.759462 -0.727722 3.129236 25.881697 12.704644 11.221813 61.162992 -15.264885 -6.554366 -172.278763 67.170888 -162.959161 0.000000 0.000000 0.000000 
-57.153351 35.020546 -24.112612 1.181293 -16.310582 0.059889 -2.942517 -7.831472 18.193998 -18.670809 0.423083 -53.893618 14.600141 3.976389 10.071354 -8.112870 -1.366277 19.360595 0.000000 0.000000 0.000000 5.486498 -9.722764 19.535845 -12.574455 3.932776 1.995707 0.367768 1.919584 23.763376 7.778453 5.124063 7.235917 0.000000 0.000000 0.000000 1.524391 -1.607595 2.557275 5.187599 9.858021 -19.209449 -3.175318 -4.556930 8.027716 0.139613 0.291187 -0.069560 -2.972168 -3.067335 7.914005 -8.031399 -8.773396 22.161942 0.000000 0.000000 0.000000 -0.199484 -2.559695 4.064704 -5.047360 1.685431 6.126007 -56.446794 19.457512 14.972938 -172.735908 -82.581058 -163.168739 0.000000 0.000000 0.000000 -5.868534 -0.625497 2.965256 25.819802 12.829091 11.433621 60.526527 -14.885806 -6.809188 -172.278176 67.337421 -162.502030 0.000000 0.000000 0.000000 
-57.824955 34.917301 -22.128090 1.040959 -16.173528 -0.807253 -3.522227 -8.687128 17.914123 -19.713285 1.147843 -51.437817 16.233647 5.075912 10.988723 -7.556231 -0.410587 19.871264 0.000000 0.000000 0.000000 5.939795 -10.390941 19.270460 -14.263948 3.877261 4.761680 1.823743 5.896182 23.480638 9.073335 6.070038 11.245442 0.000000 0.000000 0.000000 1.719033 -1.558853 2.982467 4.736849 9.961590 -19.122445 -3.251353 -4.320932 8.111740 0.090846 0.305778 -0.155738 -3.039851 -2.971257 7.712368 -8.362767 -8.598040 22.336293 0.000000 0.000000 0.000000 -0.276982 -2.527709 3.963311 -5.160194 1.624845 5.755975 -56.566964 19.108984 15.237431 -172.412321 -82.409996 -163.552131 0.000000 0.000000 0.000000 -5.987095 -0.764602 2.714083 25.674777 12.755430 11.500899 59.710846 -14.476755 -7.148303 -172.324252 67.292649 -162.216583 0.000000 0.000000 0.000000 
-58.455036 34.908798 -20.071480 -0.033583 -15.682579 -1.225110 -2.686787 -9.263546 17.293897 -20.670611 1.091341 -48.320423 16.960292 5.380127 11.115571 -8.100876 -0.699626 19.561170 0.000000 0.000000 0.000000 6.416077 -10.699460 19.017253 -15.825545 3.377979 6.878580 2.663797 5.900786 23.629039 10.904855 7.275251 15.560995 0.000000 0.000000 0.000000 2.515891 -1.339328 3.208395 4.593501 10.232574 -18.997051 -3.227911 -4.566998 7.953385 0.044431 0.078888 -0.171211 -3.227584 -2.798985 7.538715 -8.571151 -8.380586 22.462768 0.000000 0.000000 0.000000 -0.529907 -2.556658 3.896175 -5.233580 1.656042 5.571137 -56.914976 18.786133 15.771330 -173.174133 -82.209304 -162.848130 0.000000 0.000000 0.000000 -6.225374 -0.674429 2.607565 25.488927 12.718862 11.523164 59.267088 -14.116177 -7.673849 -172.297901 66.996479 -162.011937 0.000000 0.000000 0.000000 
-59.037510 34.988819 -18.063629 -0.674065 -15.114930 -1.330466 -1.896448 -9.509725 16.638906 -21.766155 0.650725 -44.933465 17.507554 5.708508 10.991650 -9.054013 -1.334305 18.606969 0.000000 0.000000 0.000000 6.778447 -10.634098 18.766232 -17.689802 2.201871 7.695814 3.135174 3.795680 25.810148 12.233239 8.415730 19.253716 0.000000 0.000000 0.000000 3.072119 -1.631868 3.210152 4.508638 10.400162 -18.947360 -3.211791 -4.550540 7.582463 -0.093347 0.005014 -0.058333 -3.407787 -2.618941 7.377485 -8.957579 -8.379027 22.484185 0.000000 0.000000 0.000000 -0.649508 -2.469156 3.817378 -5.284278 1.717569 5.395093 -57.180732 18.491661 16.452286 -173.358657 -82.080958 -162.702059 0.000000 0.000000 0.000000 -6.305336 -0.632999 2.391088 25.292696 12.777126 11.466472 58.857482 -13.801364 -7.841954 -172.353403 66.691210 -162.008494 0.000000 0.000000 0.000000 
-59.625935 35.155560 -16.185617 -0.745712 -14.595756 -1.237024 -1.494499 -9.406116 16.351833 -22.621949 -0.027087 -41.440530 17.514746 2.087390 10.316215 -10.866969 -2.490593 17.210569 0.000000 0.000000 0.000000 6.274472 -10.374817 18.480144 -19.340504 -0.269795 6.395440 3.488322 1.565992 30.740967 12.484533 8.337253 21.360952 0.000000 0.000000 0.000000 3.189680 -1.462302 2.771968 4.356680 10.364629 -18.906816 -3.315476 -4.559211 7.691993 -0.057599 -0.119857 -0.188231 -3.479077 -2.657134 7.066177 -9.169820 -8.448983 22.750071 0.000000 0.000000 0.000000 -0.806256 -2.444647 3.643090 -5.229435 1.605598 5.183170 -57.726915 18.160237 16.751304 -172.783651 -82.320411 -163.306545 0.000000 0.000000 0.000000 -6.410976 -0.574702 1.991374 25.151147 12.682929 11.524306 58.481323 -13.592584 -8.053095 -172.439095 66.661123 -162.173239 0.000000 0.000000 0.000000 
